<?xml version="1.0" standalone="no"?><!DOCTYPE svg PUBLIC "-//W3C//DTD SVG 1.1//EN" "http://www.w3.org/Graphics/SVG/1.1/DTD/svg11.dtd"><svg t="1521159925901" class="icon" style="" viewBox="0 0 1024 1024" version="1.1" xmlns="http://www.w3.org/2000/svg" p-id="4357" xmlns:xlink="http://www.w3.org/1999/xlink" width="64" height="64"><defs><style type="text/css"></style></defs><path d="M923.955352 435.198194L603.858717 106.771128a43.335582 43.335582 0 0 0-30.496747-13.084484l-0.5491-0.007225a43.350032 43.350032 0 0 0-30.258323 12.311409L135.895125 502.354618a43.256107 43.256107 0 0 0-12.867735 26.595244l-36.775277 356.055486a43.357257 43.357257 0 0 0 46.471234 47.670585l356.886362-27.62842a43.400607 43.400607 0 0 0 26.913144-12.174134l406.644973-396.37824a43.350032 43.350032 0 0 0 0.787526-61.296945zM585.890129 524.578734c-44.773358 0-81.071784-36.305652-81.071784-81.064559 0-44.766133 36.291202-81.064559 81.071784-81.06456 44.773358 0 81.057334 36.291202 81.057334 81.06456 0 44.758908-36.276752 81.064559-81.057334 81.064559z" p-id="4358"></path></svg>