<?xml version="1.0" standalone="no"?><!DOCTYPE svg PUBLIC "-//W3C//DTD SVG 1.1//EN" "http://www.w3.org/Graphics/SVG/1.1/DTD/svg11.dtd"><svg t="1521158210246" class="icon" style="" viewBox="0 0 1024 1024" version="1.1" xmlns="http://www.w3.org/2000/svg" p-id="1837" xmlns:xlink="http://www.w3.org/1999/xlink" width="64" height="64"><defs><style type="text/css"></style></defs><path d="M162.475 900.284V123.755l-0.233-0.116h427.43v194.103c0 42.875 34.875 77.75 77.75 77.75h193.831c0.04 0.62 0.272 1.436 0.272 2.019l0.311 502.85-699.361-0.077z m647.67-582.465l-142.8-0.077V162.63l142.8 155.19z m92.314-14.408L703.579 87.288c-22.02-23.923-61.4-41.322-93.673-41.322H162.242a77.711 77.711 0 0 0-77.44 77.789v776.529a77.672 77.672 0 0 0 77.362 77.75h699.672a77.672 77.672 0 0 0 77.362-77.828V397.511c0-31.38-15.457-70.954-36.74-94.1z" p-id="1838"></path><path d="M667.345 512h-310.69a38.836 38.836 0 0 0 0 77.672h310.69a38.836 38.836 0 0 0 0-77.672m0 194.18h-310.69a38.836 38.836 0 0 0 0 77.673h310.69a38.836 38.836 0 0 0 0-77.672"  p-id="1839"></path></svg>