<?xml version="1.0" standalone="no"?><!DOCTYPE svg PUBLIC "-//W3C//DTD SVG 1.1//EN" "http://www.w3.org/Graphics/SVG/1.1/DTD/svg11.dtd"><svg t="1521295039656" class="icon" style="" viewBox="0 0 1024 1024" version="1.1" xmlns="http://www.w3.org/2000/svg" p-id="6517" xmlns:xlink="http://www.w3.org/1999/xlink" width="64" height="64"><defs><style type="text/css"></style></defs><path d="M995.60064 419.50336l-152.71424-28.13696c-14.82112-2.72128-20.04096-15.15648-11.63392-27.64288l87.61984-129.88416c8.41856-12.4864 6.58944-31.41376-4.04992-42.07104l-84.04608-84.01152c-10.64576-10.65728-29.57952-12.48-42.07104-4.05632l-129.88416 87.61344c-12.49152 8.42496-24.94336 3.1808-27.66464-11.61088L603.04128 26.92608C600.30336 12.12288 585.74848 0 570.6944 0l-118.87488 0c-15.05408 0-29.61408 12.12288-32.33408 26.92608l-28.11392 152.75392c-2.73792 14.79808-15.18464 20.04736-27.67616 11.6224L233.83424 103.70176c-12.47488-8.42496-31.40352-6.60096-42.05952 4.05632l-84.0512 84.02944c-10.65728 10.6624-12.47488 29.60768-4.04992 42.05952l87.5968 129.87776c8.41344 12.4864 3.19872 24.9216-11.6288 27.64288L26.92096 419.50336C12.09984 422.22976 0 436.78976 0 451.85408l0 118.8352c0 15.05408 12.09984 29.61408 26.92096 32.352l152.77696 28.11392c14.79296 2.73792 20.02432 15.18464 11.60576 27.65952L103.67232 788.71424c-8.42496 12.49152-6.60608 31.40864 4.04992 42.06592l84.0512 84.02944c10.65728 10.6624 29.58464 12.4864 42.05952 4.04992l129.86112-87.57376c12.49152-8.4416 24.93824-3.1808 27.67616 11.59424l28.11392 152.73088c2.72128 14.8096 17.28128 26.91456 32.33408 26.91456l118.87488 0c15.05408 0 29.60768-12.10496 32.3456-26.91456l28.11392-152.7424c2.72128-14.79808 15.17312-20.04736 27.66464-11.58912l129.88416 87.57888c12.49152 8.4352 31.42528 6.61248 42.07104-4.04992l84.02944-84.0064c10.65728-10.6688 12.47488-29.58464 4.04992-42.07104l-87.62496-129.91744c-8.42496-12.47488-3.19232-24.9216 11.59936-27.65952l152.77056-28.11392c14.82112-2.73792 26.92608-17.29792 26.92608-32.352l0-118.8352C1022.52672 436.78976 1010.42176 422.22976 995.60064 419.50336zM511.18976 696.43776c-102.02496 0-184.7424-82.71104-184.7424-184.74752 0-102.03136 82.71616-184.7424 184.7424-184.7424 102.03648 0 184.74752 82.71104 184.74752 184.7424C695.93728 613.72672 613.22624 696.43776 511.18976 696.43776z" p-id="6518"></path></svg>