<?xml version="1.0" standalone="no"?><!DOCTYPE svg PUBLIC "-//W3C//DTD SVG 1.1//EN" "http://www.w3.org/Graphics/SVG/1.1/DTD/svg11.dtd"><svg t="1522480340706" class="icon" style="" viewBox="0 0 1084 1024" version="1.1" xmlns="http://www.w3.org/2000/svg" p-id="2139" xmlns:xlink="http://www.w3.org/1999/xlink" width="64" height="64"><defs><style type="text/css"></style></defs><path d="M679.96791406 629.91443867h96.25668487v96.25668399h-96.25668487zM491.78609667 629.91443867h96.25668399v96.25668399h-96.25668398zM303.60427842 629.91443867h96.25668398v96.25668399h-96.25668398zM679.96791406 427.77540107h96.25668487v96.25668487h-96.25668487zM491.78609667 427.77540107h96.25668399v96.25668487h-96.25668398zM303.60427842 427.77540107h96.25668398v96.25668487h-96.25668398z"  p-id="2140"></path><path d="M821.94652373 105.79679141h-48.12834199V62h-96.25668398v43.79679141h-89.5187171V62h-96.25668399v43.79679141H398.8983957V62H302.64171084v43.79679141H254.51336885a192.51336885 192.51336885 0 0 0-192.51336885 192.51336885v471.17647089a192.51336885 192.51336885 0 0 0 192.51336885 192.51336885h567.43315488a192.51336885 192.51336885 0 0 0 192.51336973-192.51336885V298.31016026a192.51336885 192.51336885 0 0 0-192.51336973-192.51336885z m96.25668486 663.68983974a96.25668487 96.25668487 0 0 1-96.25668486 96.25668398H254.51336885a96.25668487 96.25668487 0 0 1-96.25668398-96.25668398V298.31016026 293.01604297h759.46523994v5.29411729z" p-id="2141"></path></svg>