<?xml version="1.0" standalone="no"?><!DOCTYPE svg PUBLIC "-//W3C//DTD SVG 1.1//EN" "http://www.w3.org/Graphics/SVG/1.1/DTD/svg11.dtd"><svg t="1516844952307" class="icon" style="" viewBox="0 0 1024 1024" version="1.1" xmlns="http://www.w3.org/2000/svg" p-id="6522" xmlns:xlink="http://www.w3.org/1999/xlink" width="64" height="64"><defs><style type="text/css"></style></defs><path d="M881.536 439.104a161.152 161.152 0 0 1-227.776 0l-63.168-63.232a161.024 161.024 0 0 1 0-227.776l63.232-63.232a161.024 161.024 0 0 1 227.776 0l63.296 63.232a161.152 161.152 0 0 1 0 227.776l-63.36 63.232z m0 0M443.648 306.688a161.088 161.088 0 0 1-161.088 161.088H193.088A161.024 161.024 0 0 1 32 306.688V217.216A161.024 161.024 0 0 1 193.088 56.128h89.472a161.088 161.088 0 0 1 161.088 161.088v89.472z m0 0M973.504 825.344a161.088 161.088 0 0 1-161.088 161.088h-89.472a161.088 161.088 0 0 1-161.088-161.088v-89.472a161.088 161.088 0 0 1 161.088-161.088h89.472a161.088 161.088 0 0 1 161.088 161.088v89.472z m0 0M443.648 825.344a161.088 161.088 0 0 1-161.088 161.088H193.088A161.088 161.088 0 0 1 32 825.344v-89.472a161.024 161.024 0 0 1 161.088-161.088h89.472a161.088 161.088 0 0 1 161.088 161.088v89.472z m0 0" p-id="6523"></path></svg>