<?xml version="1.0" standalone="no"?><!DOCTYPE svg PUBLIC "-//W3C//DTD SVG 1.1//EN" "http://www.w3.org/Graphics/SVG/1.1/DTD/svg11.dtd"><svg t="1516947780556" class="icon" style="" viewBox="0 0 1024 1024" version="1.1" xmlns="http://www.w3.org/2000/svg" p-id="11195" xmlns:xlink="http://www.w3.org/1999/xlink" width="64" height="64"><defs><style type="text/css"></style></defs><path d="M691.2 870.4H422.912c-10.24 0-17.408-8.192-17.408-17.408 0-10.24 8.192-17.408 17.408-17.408h268.288c19.456 0 35.84-9.216 46.08-25.6 7.168-17.408 79.872-201.728 94.208-256 12.288-48.128-15.36-97.28-63.488-109.568-7.168-2.048-14.336-3.072-23.552-3.072H636.928c-6.144 0-11.264-3.072-14.336-8.192-3.072-5.12-4.096-11.264-2.048-16.384 10.24-27.648 16.384-92.16 16.384-173.056 0-29.696-24.576-53.248-53.248-53.248-29.696 0-53.248 24.576-53.248 53.248v17.408c0 118.784-96.256 215.04-215.04 215.04-10.24 0-17.408-8.192-17.408-17.408 0-10.24 8.192-17.408 17.408-17.408 98.304 0 179.2-79.872 179.2-179.2v-17.408c0-49.152 39.936-89.088 89.088-89.088 49.152 0 89.088 39.936 89.088 89.088 0 43.008-2.048 113.664-12.288 161.792h83.968c12.288 0 22.528 1.024 32.768 4.096 66.56 17.408 106.496 87.04 89.088 153.6-15.36 57.344-93.184 252.928-96.256 261.12 0 1.024-1.024 2.048-1.024 2.048-15.36 26.624-43.008 43.008-73.728 44.032-2.048-1.024-3.072-1.024-4.096-1.024z" p-id="11196"></path><path d="M315.392 870.4H225.28c-39.936 0-71.68-31.744-71.68-71.68V512c0-39.936 31.744-71.68 71.68-71.68h89.088c10.24 0 17.408 8.192 17.408 17.408v394.24c1.024 10.24-7.168 18.432-16.384 18.432zM225.28 476.16c-19.456 0-35.84 16.384-35.84 35.84v286.72c0 19.456 16.384 35.84 35.84 35.84h71.68v-358.4h-71.68z"  p-id="11197"></path></svg>