<?xml version="1.0" standalone="no"?><!DOCTYPE svg PUBLIC "-//W3C//DTD SVG 1.1//EN" "http://www.w3.org/Graphics/SVG/1.1/DTD/svg11.dtd"><svg t="1526025386156" class="icon" style="" viewBox="0 0 1260 1024" version="1.1" xmlns="http://www.w3.org/2000/svg" p-id="4329" xmlns:xlink="http://www.w3.org/1999/xlink" width="64" height="64"><defs><style type="text/css"></style></defs><path d="M1243.707 437.977v0.197a48.246 48.246 0 0 1-88.891 7.05 48.345 48.345 0 0 1-2.914-36.884l-0.08-0.04a238.178 238.178 0 0 0-49.525-232.605A236.74 236.74 0 0 0 876.623 102.4a48.286 48.286 0 0 1-57.305-37.218 48.423 48.423 0 0 1 37.16-57.404c112.64-24.024 234.752 11.028 317.479 103.05 82.747 91.924 105.058 217.226 69.75 327.149zM909.53 257.162v-0.04a41.393 41.393 0 0 1-49.231-31.96 41.63 41.63 0 0 1 31.921-49.428 161.989 161.989 0 0 1 154.644 50.078c40.369 44.84 51.14 105.846 33.91 159.409a41.55 41.55 0 0 1-52.283 26.84 41.63 41.63 0 0 1-26.683-52.44h-0.079a79.813 79.813 0 0 0-16.542-77.982 79.557 79.557 0 0 0-75.657-24.477z m36.903 236.071c72.212 22.45 152.714 76.8 152.714 172.544 0 158.563-227.998 358.223-570.604 358.223C267.166 1023.96 0 896.906 0 687.99c0-109.292 69.022-235.579 187.865-354.796 158.66-159.114 343.71-231.582 413.321-161.713 30.72 30.72 33.674 84.046 13.943 147.653-10.3 32.02 29.991 14.296 29.991 14.375 128.217-53.878 240.187-57.068 281.108 1.575 21.74 31.213 19.672 75.008-0.394 125.755-9.315 23.375 2.836 27.018 20.598 32.375zM529.231 949.071c208.58-20.677 366.67-148.717 353.142-286.13-13.529-137.255-193.536-231.857-402.117-211.16-208.542 20.677-366.73 148.795-353.142 286.05 13.528 137.335 193.575 231.917 402.117 211.24z m20.834-391.562C652.8 584.113 705.201 681.314 663.217 775.66c-42.555 96.591-164.962 148.027-268.859 114.413-100.273-32.434-142.71-131.722-98.816-221.224 43.107-87.65 155.294-137.255 254.523-111.34zM474.29 785.9c19.81-32.61 9.393-69.829-23.296-83.83-32.295-13.528-74.043 0.394-93.971 31.764-20.185 31.448-10.693 68.982 21.385 83.594 32.532 14.907 75.717 0.768 95.902-31.508z" p-id="4330"></path></svg>