<?xml version="1.0" standalone="no"?><!DOCTYPE svg PUBLIC "-//W3C//DTD SVG 1.1//EN" "http://www.w3.org/Graphics/SVG/1.1/DTD/svg11.dtd"><svg t="1540451846898" class="icon" style="" viewBox="0 0 1024 1024" version="1.1" xmlns="http://www.w3.org/2000/svg" p-id="1984" xmlns:xlink="http://www.w3.org/1999/xlink" width="128" height="128"><defs><style type="text/css"></style></defs><path d="M321.337205 707.596857l0.309654-0.52974h-0.309654v0.52974z" p-id="1985"></path><path d="M512.000059 0C229.229001 0 0.000059 229.228942 0.000059 512c0 282.771058 229.228942 512 512 512 282.771058 0 512-229.231501 512-512.002559C1024.000059 229.228942 794.771117 0 512.000059 0z m44.426495 833.728692h-88.464002v-88.46912h88.464002v88.46912z m140.240318-394.438691c-12.96967 23.247136-38.287142 51.609973-75.921706 84.97079-25.258612 22.540816-41.854569 39.049763-49.557551 49.726453-7.731131 10.64598-13.565948 22.82232-17.302277 36.669773-3.79519 13.850011-5.919267 36.219365-6.512985 67.315352h-74.621669v0.00256c-0.284063-10.392627-0.424816-18.121199-0.424816-23.277846 0-30.469001 4.360757-56.807565 12.969671-78.954276 6.341524-16.703441 16.593398-33.527161 30.640462-50.519783 10.308175-12.373393 28.9412-30.497151 55.814623-54.215167 26.904133-23.715457 44.403463-42.619749 52.446808-56.694963 8.015195-14.08801 12.063738-29.463262 12.063738-46.187177 0-30.187496-11.784793-56.779415-35.310874-79.606853-23.590059-22.82232-52.5287-34.335846-86.767299-34.335846-33.104904 0-60.717916 10.407981-82.859508 31.078073-22.174861 20.716157-36.672331 53.043085-43.612691 97.062679l-79.829498-9.473899c7.221865-58.987944 28.570126-104.141232 64.08573-135.518724 35.479777-31.377492 82.462843-47.064958 140.885219-47.064958 61.846492 0 111.20699 16.85187 148.017514 50.522343 36.843793 33.655117 55.251614 74.378551 55.251615 122.108883 0 27.615571-6.515545 53.101945-19.454506 76.392586z" p-id="1986"></path></svg>