<?xml version="1.0" standalone="no"?><!DOCTYPE svg PUBLIC "-//W3C//DTD SVG 1.1//EN" "http://www.w3.org/Graphics/SVG/1.1/DTD/svg11.dtd"><svg class="icon" width="128px" height="128.00px" viewBox="0 0 1024 1024" version="1.1" xmlns="http://www.w3.org/2000/svg"><path d="M921.6 59.733333H145.066667c-46.933333 0-81.066667 38.4-81.066667 81.066667v529.066667c0 46.933333 38.4 81.066667 81.066667 81.066666H512V853.333333H405.333333c-34.133333 0-64 29.866667-64 64S371.2 981.333333 405.333333 981.333333h298.666667c34.133333 0 64-29.866667 64-64s-29.866667-64-64-64H597.333333v-102.4h324.266667c46.933333 0 81.066667-38.4 81.066667-81.066666V140.8c0-46.933333-38.4-81.066667-81.066667-81.066667z m-25.6 401.066667h-234.666667l-55.466666 166.4-170.666667-256-29.866667 89.6H170.666667V396.8h192l55.466666-166.4 170.666667 256 29.866667-89.6H896v64z" /></svg>