<?xml version="1.0" standalone="no"?><!DOCTYPE svg PUBLIC "-//W3C//DTD SVG 1.1//EN" "http://www.w3.org/Graphics/SVG/1.1/DTD/svg11.dtd"><svg t="1540216865807" class="icon" style="" viewBox="0 0 1279 1024" version="1.1" xmlns="http://www.w3.org/2000/svg" p-id="5447" xmlns:xlink="http://www.w3.org/1999/xlink" width="159.875" height="128"><defs><style type="text/css"></style></defs><path d="M1272.510008 472.909166l-150.060545 149.253768a32.022846 32.022846 0 0 1-44.68304 0l-148.943469-149.253768c-17.718067-20.479727-5.895679-27.9269 6.454217-39.718258h136.531513A441.803564 441.803564 0 0 0 253.271234 304.727166l-74.471734-29.478395a521.581409 521.581409 0 0 1 973.779986 157.942137h113.569395a26.654675 26.654675 0 0 1 6.361127 39.718258zM202.723544 440.94838l150.029515 149.564067a26.623645 26.623645 0 0 1-6.454217 39.718258H216.376696a442.269012 442.269012 0 0 0 789.741712 120.706269l75.216452 29.788694a521.581409 521.581409 0 0 1-946.815012-150.494963H15.520222c-12.411956-11.791358-24.172284-19.238531-6.454217-39.718258l148.943469-149.564067a32.643444 32.643444 0 0 1 44.71407 0z" p-id="5448"></path></svg>