<?xml version="1.0" standalone="no"?><!DOCTYPE svg PUBLIC "-//W3C//DTD SVG 1.1//EN" "http://www.w3.org/Graphics/SVG/1.1/DTD/svg11.dtd"><svg t="1540825802069" class="icon" style="" viewBox="0 0 1024 1024" version="1.1" xmlns="http://www.w3.org/2000/svg" p-id="8019" xmlns:xlink="http://www.w3.org/1999/xlink" width="128" height="128"><defs><style type="text/css"></style></defs><path d="M243.53 877.29h536.94c32.94 0 59.67 18.39 59.67 41.07s-26.73 41.08-59.67 41.08H243.53c-33 0-59.67-18.39-59.67-41.08s26.71-41.07 59.67-41.07zM899.79 64.56H124.22c-33 0-59.67 27.17-59.67 60.7V702c0 33.52 26.71 60.71 59.67 60.71h775.57c33 0 59.66-27.19 59.66-60.71V125.26c0-33.53-26.71-60.7-59.66-60.7z m-58.57 378.33H717.85L608.61 567a23.27 23.27 0 0 1-17.52 8 24.63 24.63 0 0 1-2.58-0.14 23.53 23.53 0 0 1-18-12.12L416.72 283.15l-75.45 147.11a23.5 23.5 0 0 1-20.88 12.86H185a24 24 0 0 1 0-47.91h121.13l89-173.49a23.5 23.5 0 0 1 20.51-12.87h0.36a23.52 23.52 0 0 1 20.56 12.26l159 288.9 94.28-107a23.26 23.26 0 0 1 17.52-8h133.86a24 24 0 0 1 0 47.91z" p-id="8020"></path></svg>