<?xml version="1.0" standalone="no"?><!DOCTYPE svg PUBLIC "-//W3C//DTD SVG 1.1//EN" "http://www.w3.org/Graphics/SVG/1.1/DTD/svg11.dtd"><svg class="icon" width="128px" height="128.00px" viewBox="0 0 1024 1024" version="1.1" xmlns="http://www.w3.org/2000/svg"><path  d="M511.984 0.031999a275.703384 275.703384 0 1 0 0 551.342771A275.703384 275.703384 0 0 0 511.984 0.031999z m0 472.62523A196.921846 196.921846 0 1 1 511.984 78.749539a196.921846 196.921846 0 0 1 0 393.843692zM847.141527 597.901316A511.984 511.984 0 0 0 0 984.64123a39.35877 39.35877 0 0 0 78.71754 0 433.26646 433.26646 0 0 1 718.825537-326.133808 39.35877 39.35877 0 0 0 51.966376-58.23818l-2.367926-2.367926zM630.124309 748.296616h354.484922a39.35877 39.35877 0 0 1 0 78.781538H630.124309a39.35877 39.35877 0 0 1 0-78.71754z m0 196.921846h354.484922a39.35877 39.35877 0 1 1 0 78.781538H630.124309a39.35877 39.35877 0 0 1 0-78.71754z" /></svg>