<?xml version="1.0" standalone="no"?><!DOCTYPE svg PUBLIC "-//W3C//DTD SVG 1.1//EN" "http://www.w3.org/Graphics/SVG/1.1/DTD/svg11.dtd"><svg t="1541906093685" class="icon" style="" viewBox="0 0 1024 1024" version="1.1" xmlns="http://www.w3.org/2000/svg" p-id="3182" xmlns:xlink="http://www.w3.org/1999/xlink" width="128" height="128"><defs><style type="text/css"></style></defs><path d="M541.6 883.6c-4.9 4.2-11 6.3-18.2 6.3-13.8 0-26-9.7-36.6-29.2l-35.2 21.2v0.2c8.3 16.4 18.2 28.4 29.8 36.1 11.7 7.7 25.3 11.5 41 11.5 20.1 0 36.4-5.9 48.9-17.7 12.5-11.8 18.7-26.7 18.7-44.8 0-9.3-1.8-17.8-5.3-25.7-3.5-7.8-9.6-16-18.1-24.6-3.4-3.5-13.1-12-29.1-25.3-17.1-14.4-27.4-23.9-30.7-28.3-2.5-3.3-3.8-6.8-3.8-10.5s1.8-7.1 5.3-10c3.5-2.9 8-4.4 13.5-4.4 11.3 0 22.4 7.6 33.3 22.7l31-27.4C574.7 720.3 563.9 711 554 706c-10-5.1-20.5-7.6-31.4-7.6-17.1 0-31.5 5.5-43.1 16.4-11.7 10.9-17.5 24-17.5 39.3 0 10.6 3.5 21.2 10.5 31.8 7 10.6 22.5 25.7 46.5 45.3 12.6 10.3 20.7 17.9 24.4 22.9 3.7 5 5.6 10 5.6 15 0 5.5-2.5 10.3-7.4 14.5zM799.2 732.1c-22.4-22.6-49.3-33.9-80.5-33.9-20.5 0-39.6 5.2-57.5 15.6-17.9 10.4-31.9 24.4-42.1 42-10.2 17.6-15.3 37-15.3 58.1 0 31.5 10.9 58.7 32.8 81.5 21.9 22.8 49.4 34.2 82.5 34.2 19.8 0 37.7-4.4 53.8-13.2l19.5 25.1h49.7L803.8 892c19.4-21.7 29.1-47.4 29.1-77.3 0-32.5-11.2-60.1-33.7-82.6z m-21.6 126l-19.9-25.6h-50l39.4 50.8c-8.8 3.9-18.2 5.9-28.2 5.9-17.4 0-33-5.6-46.7-16.6-17.4-14.3-26.2-33.6-26.2-58 0-21.9 7-39.9 20.9-54.1 13.9-14.2 31.1-21.3 51.7-21.3 20 0 37 7.3 51.1 21.8 14.1 14.6 21.2 32.3 21.2 53.2 0 16.1-4.4 30.7-13.3 43.9zM899 703.8h-41.9v220.3h103v-40H899z" p-id="3183"></path><path d="M451.3 585c122.9 0 251.9-24.6 325.6-67.6v85.8h0.1c0.9 16.1 14.3 28.9 30.7 28.9s29.7-12.8 30.7-28.9h0.1V234.8c0-202.7-774.1-202.7-774.1 0v552.9c0 80.7 132.6 132.4 285.4 148.3 1.3 0.2 2.7 0.4 4.1 0.4 0.6 0.1 1.1 0.1 1.7 0.2v-0.2c16.7-0.3 30.1-13.9 30.1-30.7 0-17-13.8-30.7-30.7-30.7h-0.8c-147.5-15-228.3-61.8-228.3-87.4v-92.2c53 30.9 134.7 52.3 222.1 61.9 2.3 0.5 4.6 0.8 7 0.8h0.6c16.7-0.3 30.1-13.9 30.1-30.7 0-17-13.8-30.7-30.7-30.7h-1.3c-147.2-15.1-227.9-61.8-227.9-87.3v-92.2c73.6 43.2 202.6 67.8 325.5 67.8zM778 419.1c0 36.9-116.7 98.3-325.6 98.3-208.9 0-325.6-61.4-325.6-92.2V333c73.7 43 202.7 67.6 325.6 67.6 122.9 0 251.9-24.6 325.6-67.6v86.1zM451.3 142.6c208.9 0 325.6 61.4 325.6 92.1 0 30.7-116.7 92.2-325.6 92.2-208.9 0-325.6-61.4-325.6-92.2-0.1-30.6 116.7-92.1 325.6-92.1z" p-id="3184"></path></svg>