<?xml version="1.0" standalone="no"?><!DOCTYPE svg PUBLIC "-//W3C//DTD SVG 1.1//EN" "http://www.w3.org/Graphics/SVG/1.1/DTD/svg11.dtd"><svg t="1540215356551" class="icon" style="" viewBox="0 0 1024 1024" version="1.1" xmlns="http://www.w3.org/2000/svg" p-id="1864" xmlns:xlink="http://www.w3.org/1999/xlink" width="128" height="128"><defs><style type="text/css"></style></defs><path d="M684.151467 905.376427c-15.663787 0-28.40576-12.741973-28.40576-28.402347v-148.176213c0-15.660373 12.741973-28.402347 28.40576-28.402347h66.894506v-148.39808c0-1.35168-1.324373-2.676053-2.676053-2.676053H276.9408c-1.35168 0-2.679467 1.327787-2.679467 2.676053v148.39808h65.583787c15.663787 0 28.40576 12.741973 28.40576 28.402347v148.176213c0 15.660373-12.741973 28.402347-28.40576 28.402347H112.356693c-15.663787 0-28.40576-12.741973-28.40576-28.402347v-148.176213c0-15.660373 12.741973-28.402347 28.40576-28.402347h68.205227v-148.39808c0-53.142187 43.236693-96.375467 96.375467-96.375467h188.2112V323.60448h-66.894507c-15.660373 0-28.402347-12.741973-28.402347-28.402347v-148.1728c0-15.663787 12.741973-28.40576 28.402347-28.40576h227.488427c15.663787 0 28.40576 12.741973 28.40576 28.40576v148.176214c0 15.660373-12.741973 28.402347-28.40576 28.402346h-66.894507v132.01408h189.52192c53.142187 0 96.375467 43.23328 96.375467 96.375467v148.39808h66.894506c15.663787 0 28.40576 12.741973 28.40576 28.402347v148.176213c0 15.660373-12.741973 28.402347-28.40576 28.402347h-227.488426z" p-id="1865"></path></svg>