<?xml version="1.0" standalone="no"?><!DOCTYPE svg PUBLIC "-//W3C//DTD SVG 1.1//EN" "http://www.w3.org/Graphics/SVG/1.1/DTD/svg11.dtd"><svg t="1540824878352" class="icon" style="" viewBox="0 0 1024 1024" version="1.1" xmlns="http://www.w3.org/2000/svg" p-id="5005" xmlns:xlink="http://www.w3.org/1999/xlink" width="128" height="128"><defs><style type="text/css"></style></defs><path d="M891.597107 156.426883H701.211501v-64.84671c0-35.765038-28.359146-64.84671-63.401658-64.84671H384.20321c-35.042512 0-63.401658 29.081672-63.401658 64.84671v64.84671h-190.204974c-70.085024 0-126.803316 57.982713-126.803316 129.512789v161.665197h1014.607161v-161.665197c0-71.530076-56.898924-129.512789-126.803316-129.512789z m-253.787264 0H384.20321v-32.333039c0-17.882519 14.269889-32.333039 31.791145-32.33304h190.204975c17.521256 0 31.791145 14.45052 31.791145 32.33304l-0.180632 32.333039zM511.006527 609.81196c35.042512 0 63.401658-29.081672 63.401658-64.84671 0-11.921679-3.251367-22.75957-8.850944-32.33304H456.455812c-5.418945 9.57347-8.850944 20.591992-8.850943 32.33304 0 35.945669 28.359146 64.84671 63.401658 64.84671z" p-id="5006"></path><path d="M633.294055 512.63221c2.709473 10.476627 4.515788 21.133886 4.515788 32.33304 0 71.530076-56.718292 129.512789-126.803316 129.512788-70.085024 0-126.803316-57.982713-126.803317-129.512788 0-11.199153 1.806315-22.037044 4.515788-32.33304h-384.925736v356.205327c0 71.530076 56.718292 129.512789 126.803316 129.512789h761.000529c70.085024 0 126.803316-57.982713 126.803316-129.512789V512.63221H633.294055z" p-id="5007"></path></svg>