<?xml version="1.0" standalone="no"?><!DOCTYPE svg PUBLIC "-//W3C//DTD SVG 1.1//EN" "http://www.w3.org/Graphics/SVG/1.1/DTD/svg11.dtd"><svg class="icon" width="128px" height="128.00px" viewBox="0 0 1024 1024" version="1.1" xmlns="http://www.w3.org/2000/svg"><path d="M812.8 0L416 403.2C384 390.4 352 384 320 384c-179.2 0-320 140.8-320 320s140.8 320 320 320 320-140.8 320-320c0-32-6.4-70.4-19.2-102.4L704 512V384h128V256h128l64-64V0h-211.2zM288 768c-51.2 0-96-44.8-96-96S236.8 576 288 576 384 620.8 384 672 339.2 768 288 768z" /></svg>