<?xml version="1.0" standalone="no"?><!DOCTYPE svg PUBLIC "-//W3C//DTD SVG 1.1//EN" "http://www.w3.org/Graphics/SVG/1.1/DTD/svg11.dtd"><svg t="1540825099690" class="icon" style="" viewBox="0 0 1170 1024" version="1.1" xmlns="http://www.w3.org/2000/svg" p-id="6637" xmlns:xlink="http://www.w3.org/1999/xlink" width="146.25" height="128"><defs><style type="text/css"></style></defs><path d="M35.108571 144.091429c0 51.2 43.885714 87.771429 87.771429 87.771428s87.771429-43.885714 87.771429-87.771428-36.571429-87.771429-87.771429-87.771429-87.771429 43.885714-87.771429 87.771429z m1045.942858 43.885714h-709.485715c-29.257143 0-51.2-21.942857-51.2-51.2s21.942857-51.2 51.2-51.2h709.485715c29.257143 0 51.2 21.942857 51.2 51.2 0 29.257143-21.942857 51.2-51.2 51.2zM35.108571 509.805714c0 51.2 43.885714 87.771429 87.771429 87.771429s87.771429-43.885714 87.771429-87.771429-36.571429-87.771429-87.771429-87.771428-87.771429 43.885714-87.771429 87.771428z m1045.942858 43.885715h-709.485715c-29.257143 0-51.2-21.942857-51.2-51.2s21.942857-51.2 51.2-51.2h709.485715c29.257143 0 51.2 21.942857 51.2 51.2 0 29.257143-21.942857 51.2-51.2 51.2z m-1045.942858 321.828571c0 51.2 43.885714 87.771429 87.771429 87.771429s87.771429-43.885714 87.771429-87.771429-36.571429-87.771429-87.771429-87.771429-87.771429 36.571429-87.771429 87.771429z m1045.942858 43.885714h-709.485715c-29.257143 0-51.2-21.942857-51.2-51.2s21.942857-51.2 51.2-51.2h709.485715c29.257143 0 51.2 21.942857 51.2 51.2 0 29.257143-21.942857 51.2-51.2 51.2z" p-id="6638"></path></svg>