<?xml version="1.0" standalone="no"?><!DOCTYPE svg PUBLIC "-//W3C//DTD SVG 1.1//EN" "http://www.w3.org/Graphics/SVG/1.1/DTD/svg11.dtd"><svg t="1541906283905" class="icon" style="" viewBox="0 0 1024 1024" version="1.1" xmlns="http://www.w3.org/2000/svg" p-id="5796" xmlns:xlink="http://www.w3.org/1999/xlink" width="128" height="128"><defs><style type="text/css"></style></defs><path d="M122.670473 432.940281C179.193909 240.224601 302.960742 102.570545 529.054485 83.079705c15.592672-1.461813 37.276231-0.243635 55.061623-3.410897 15.349036-2.923626 34.10897-14.130859 51.650725-21.196288C707.39567 29.23626 865.758744-22.414466 945.671187 40.930764c69.436117 55.061623 56.523436 188.573876 13.643588 275.795384 34.10897 68.948846 59.447062 164.697597 44.828932 272.140852-200.999286 8.283607-435.133 1.218177-630.285035 3.654532 6.578158 103.788722 71.872472 183.213895 168.839401 194.421128 94.774209 10.963597 160.068522-42.392577 203.192006-102.570545h240.955507c-62.614323 179.315727-221.708304 318.431596-468.267428 300.40257-56.036165-4.141803-99.646919-20.465382-148.130383-38.98168-80.64335 44.098025-259.471806 109.392339-330.613371 17.541756-54.087081-69.679753-19.247204-196.613847 10.232691-279.206281C110.488699 516.507257 224.510112 350.591482 336.338806 256.304544c0.730906-2.923626 3.410897-3.654532 3.410897-7.065429-88.19605 44.828932-147.886748 119.137759-217.07923 183.701166zM969.791102 171.275755c-3.410897-120.355936-158.850345-108.417797-240.955508-60.177968 91.850583 36.545325 158.606709 98.672377 213.424696 173.22484 11.938139-37.763502 28.748989-68.948846 27.530812-113.046872zM374.102308 464.612896h382.264097c-10.963597-245.828218-370.325958-225.850107-382.264097 0zM91.728765 896.091363c19.247204 108.905068 172.006662 77.232453 240.955508 28.261718-90.632405-50.676184-147.155841-136.435879-192.959315-233.402807-20.952653 52.381632-60.665239 133.024982-47.996193 205.141089z m0 0" fill="" p-id="5797"></path></svg>