<?xml version="1.0" standalone="no"?><!DOCTYPE svg PUBLIC "-//W3C//DTD SVG 1.1//EN" "http://www.w3.org/Graphics/SVG/1.1/DTD/svg11.dtd"><svg t="1540826319987" class="icon" style="" viewBox="0 0 1024 1024" version="1.1" xmlns="http://www.w3.org/2000/svg" p-id="11021" xmlns:xlink="http://www.w3.org/1999/xlink" width="128" height="128"><defs><style type="text/css"></style></defs><path d="M979.283034 331.551518L547.84022 11.932749C537.100746 4.005566 524.57136 0 512.041974 0c-12.528387 0-25.142721 4.005566-35.796246 11.932749l-59.321951 43.893326L44.716966 331.552517c-16.194159 12.017697-25.825306 31.365939-25.825306 51.991405V958.857307c0 35.286557 27.615218 63.924154 61.622552 63.924154H233.249395c55.912023 0 93.839974 14.575143 93.839974-114.551388V639.238538c0-35.286557 27.615218-63.924154 61.622553-63.924154h246.576156c34.007334 0 61.622552 28.637597 61.622553 63.924154v257.058786c0 149.070411 20.967258 126.484136 80.970794 126.484137h165.604363c34.007334 0 61.622552-28.637597 61.622552-63.924154V383.542923c0-20.625466-9.631147-39.973708-25.824306-51.991405z" p-id="11022"></path></svg>