<?xml version="1.0" standalone="no"?><!DOCTYPE svg PUBLIC "-//W3C//DTD SVG 1.1//EN" "http://www.w3.org/Graphics/SVG/1.1/DTD/svg11.dtd"><svg t="1516843969033" class="icon" style="" viewBox="0 0 1024 1024" version="1.1" xmlns="http://www.w3.org/2000/svg" p-id="4145" xmlns:xlink="http://www.w3.org/1999/xlink" width="64" height="64"><defs><style type="text/css"></style></defs><path d="M1024 50c0 27.614-22.385 50-50 50H50C22.386 100 0 77.614 0 50S22.386 0 50 0h924c27.615 0 50 22.386 50 50zM1024 512c0 27.614-22.385 50-50 50H50c-27.614 0-50-22.386-50-50s22.386-50 50-50h924c27.615 0 50 22.386 50 50zM1024 974c0 27.614-22.385 50-50 50H50c-27.614 0-50-22.386-50-50s22.386-50 50-50h924c27.615 0 50 22.386 50 50z" p-id="4146"></path></svg>