<?xml version="1.0" standalone="no"?><!DOCTYPE svg PUBLIC "-//W3C//DTD SVG 1.1//EN" "http://www.w3.org/Graphics/SVG/1.1/DTD/svg11.dtd"><svg t="1524874977746" class="icon" style="" viewBox="0 0 1024 1024" version="1.1" xmlns="http://www.w3.org/2000/svg" p-id="4586" xmlns:xlink="http://www.w3.org/1999/xlink" width="64" height="64"><defs><style type="text/css"></style></defs><path d="M953.344 666.624l2.048 14.336 0 8.192 0 6.144 0 6.144-1.024 7.168-1.024 12.288-3.072 11.264-3.072 10.24-1.024 5.12-2.048 4.096-3.072 4.096-2.048 4.096-2.048 3.072-3.072 3.072-2.048 3.072-3.072 2.048-3.072 1.024-3.072 2.048-3.072 1.024-2.048 0-1.024 0-3.072-1.024-4.096-2.048-2.048-2.048-3.072-1.024-2.048-3.072-2.048-2.048-4.096-4.096-4.096-6.144-4.096-6.144-4.096-6.144-4.096-6.144-5.12-10.24-5.12-11.264-1.024 0-1.024 0-2.048 1.024-1.024 3.072-3.072 4.096-3.072 10.24-6.144 15.36-8.192 18.432-5.12 9.216-6.144 10.24-7.168 11.264-7.168 10.24-4.096 5.12-5.12 5.12-10.24 10.24 1.024 1.024 1.024-4.096 5.12 3.072 22.528 11.264 10.24 5.12 9.216 5.12 9.216 7.168 8.192 7.168 4.096 3.072 3.072 4.096 3.072 3.072 2.048 5.12 2.048 4.096 1.024 4.096 1.024 4.096 1.024 4.096-1.024 3.072 0 3.072-1.024 3.072-1.024 3.072-1.024 2.048-2.048 4.096-3.072 5.12-4.096 4.096-3.072 3.072-2.048 3.072-6.144 4.096-7.168 4.096-8.192 3.072-7.168 4.096-9.216 3.072-5.12 2.048-4.096 1.024-10.24 2.048-10.24 3.072-11.264 2.048-11.264 1.024-12.288 1.024-12.288 2.048-12.288 0-13.312 0-13.312 0-13.312-1.024-13.312-2.048-13.312-1.024-14.336-1.024-14.336-3.072-14.336-3.072-13.312-3.072-14.336-3.072-13.312-5.12-14.336-4.096-6.144-3.072-7.168-2.048-4.096-1.024-4.096-1.024-5.12 0-6.144 0-13.312-1.024-6.144-1.024-8.192 0-6.144 4.096-7.168 5.12-10.24 5.12-11.264 6.144-7.168 3.072-7.168 3.072-15.36 6.144-9.216 2.048-9.216 2.048-12.288 3.072-7.168 0-9.216 1.024-8.192 1.024-9.216 1.024-10.24 0-10.24 0-21.504 0-22.528-1.024-22.528-2.048-12.288-2.048-10.24-2.048-11.264-1.024-10.24-2.048-10.24-3.072-9.216-3.072-9.216-3.072-9.216-3.072-7.168-4.096-7.168-5.12-7.168-4.096-2.048-2.048-3.072-3.072-2.048-2.048-3.072-3.072-1.024-4.096-1.024-3.072-3.072-6.144-1.024-2.048 0-4.096 0-3.072 0-4.096 0-4.096 1.024-4.096 0-2.048 0-5.12 1.024-4.096 2.048-4.096 1.024-5.12 2.048-5.12 2.048-2.048 2.048-3.072 4.096-5.12 4.096-2.048 2.048-2.048 4.096-3.072 4.096-1.024 4.096-2.048 4.096-2.048 5.12-2.048 6.144-2.048 6.144-1.024 6.144-1.024 7.168 0 7.168-1.024 2.048-1.024 1.024-1.024 0-1.024-1.024-1.024-4.096-2.048-10.24-3.072-7.168-5.12-7.168-7.168-8.192-8.192-8.192-9.216-9.216-11.264-4.096-6.144-4.096-6.144-4.096-7.168-4.096-7.168-4.096-8.192-3.072-8.192-4.096-8.192-4.096-9.216-3.072-9.216-2.048-11.264-1.024 0-1.024 0 0-1.024-1.024 0-1.024 1.024-1.024 0-1.024 2.048-1.024 2.048-1.024 2.048-1.024 3.072-5.12 9.216-2.048 4.096-3.072 5.12-4.096 5.12-5.12 5.12-4.096 5.12-5.12 5.12-6.144 4.096-5.12 4.096-6.144 4.096-6.144 2.048-8.192 2.048-3.072 1.024-2.048 0-2.048-1.024-2.048 0-2.048-2.048-1.024-2.048-4.096-6.144-1.024-3.072-1.024-5.12-2.048-5.12-1.024-6.144-1.024-11.264-1.024-7.168 0-7.168 0-15.36 1.024-16.384 2.048-8.192 1.024-9.216 1.024-9.216 3.072-9.216 3.072-10.24 3.072-10.24 4.096-10.24 3.072-9.216 5.12-10.24 5.12-11.264 6.144-9.216 7.168-11.264 7.168-10.24 7.168-10.24 6.144-8.192 8.192-8.192 8.192-9.216 3.072-4.096 5.12-4.096 7.168-6.144 7.168-6.144 11.264-10.24 8.192-6.144 3.072-2.048-1.024-5.12-2.048-7.168-1.024-4.096 0-4.096 0-6.144 0-5.12 2.048-6.144 1.024-6.144 2.048-7.168 4.096-7.168 3.072-8.192 6.144-7.168 0-5.12 0-6.144 1.024-6.144 2.048-8.192 3.072-8.192 1.024-4.096 2.048-4.096 3.072-3.072 2.048-3.072 0-6.144 0-6.144 0-7.168 2.048-10.24 1.024-11.264 4.096-14.336 3.072-14.336 3.072-7.168 3.072-9.216 3.072-8.192 4.096-8.192 4.096-9.216 4.096-9.216 5.12-9.216 6.144-9.216 3.072-5.12 4.096-5.12 6.144-10.24 7.168-9.216 8.192-10.24 8.192-10.24 9.216-10.24 10.24-9.216 11.264-11.264 8.192-6.144 9.216-7.168 9.216-6.144 10.24-6.144 10.24-6.144 10.24-4.096 11.264-5.12 11.264-4.096 12.288-4.096 12.288-4.096 12.288-3.072 12.288-2.048 13.312-2.048 13.312-1.024 13.312-2.048 13.312-1.024 13.312 0 13.312 0 14.336 0 13.312 2.048 14.336 1.024 13.312 2.048 13.312 3.072 14.336 3.072 13.312 3.072 13.312 3.072 13.312 5.12 12.288 5.12 12.288 5.12 13.312 6.144 11.264 7.168 11.264 7.168 10.24 7.168 4.096 3.072 5.12 4.096 9.216 7.168 7.168 7.168 8.192 8.192 7.168 8.192 6.144 8.192 7.168 9.216 5.12 9.216 5.12 8.192 6.144 9.216 4.096 8.192 8.192 17.408 3.072 9.216 3.072 9.216 3.072 9.216 3.072 8.192 2.048 7.168 2.048 9.216 4.096 15.36 3.072 13.312 1.024 13.312 2.048 10.24 2.048 16.384 1.024 2.048 1.024 3.072 6.144 9.216 3.072 5.12 3.072 6.144 3.072 6.144 3.072 7.168 3.072 8.192 2.048 8.192 1.024 8.192 1.024 5.12 1.024 5.12 0 5.12-1.024 4.096 0 5.12-1.024 6.144-3.072 10.24-2.048 5.12-2.048 6.144 0 2.048 1.024 1.024 3.072 5.12 12.288 17.408 9.216 14.336 4.096 8.192 6.144 10.24 5.12 10.24 6.144 11.264 6.144 13.312 7.168 14.336 4.096 9.216 4.096 9.216 3.072 9.216 3.072 8.192 2.048 8.192 2.048 8.192 3.072 16.384z" p-id="4587" ></path></svg>