<?xml version="1.0" standalone="no"?><!DOCTYPE svg PUBLIC "-//W3C//DTD SVG 1.1//EN" "http://www.w3.org/Graphics/SVG/1.1/DTD/svg11.dtd"><svg t="1516844877708" class="icon" style="" viewBox="0 0 1024 1024" version="1.1" xmlns="http://www.w3.org/2000/svg" p-id="5715" xmlns:xlink="http://www.w3.org/1999/xlink" width="64" height="64"><defs><style type="text/css"></style></defs><path d="M512 0C228.266667 0 0 228.266667 0 512s228.266667 512 512 512 512-228.266667 512-512S795.733333 0 512 0z m249.6 597.333333H471.466667 469.333333c-6.4 0-12.8-4.266667-17.066666-10.666666-2.133333-4.266667-4.266667-6.4-4.266667-10.666667v-2.133333V279.466667c0-12.8 8.533333-23.466667 21.333333-23.466667s21.333333 10.666667 21.333334 23.466667V554.666667h270.933333c14.933333 0 27.733333 8.533333 27.733333 21.333333s-12.8 21.333333-27.733333 21.333333z" p-id="5716"></path></svg>