<?xml version="1.0" standalone="no"?><!DOCTYPE svg PUBLIC "-//W3C//DTD SVG 1.1//EN" "http://www.w3.org/Graphics/SVG/1.1/DTD/svg11.dtd"><svg t="1516948076465" class="icon" style="" viewBox="0 0 1024 1024" version="1.1" xmlns="http://www.w3.org/2000/svg" p-id="12649" xmlns:xlink="http://www.w3.org/1999/xlink" width="64" height="64"><defs><style type="text/css"></style></defs><path d="M798.72 117.76H250.88C176.64 117.76 115.2 179.2 115.2 253.44v432.64c0 74.24 53.76 122.88 128 122.88h168.96l112.64 128 112.64-128h168.96c74.24 0 128-48.64 128-122.88V253.44c0-76.8-61.44-135.68-135.68-135.68z m84.48 563.2c0 38.4-38.4 76.8-76.8 76.8h-204.8l-76.8 102.4-76.8-102.4h-204.8c-38.4 0-76.8-38.4-76.8-76.8v-435.2c0-38.4 38.4-76.8 76.8-76.8h563.2c38.4 0 76.8 38.4 76.8 76.8v435.2z" p-id="12650" ></path></svg>