<?xml version="1.0" standalone="no"?><!DOCTYPE svg PUBLIC "-//W3C//DTD SVG 1.1//EN" "http://www.w3.org/Graphics/SVG/1.1/DTD/svg11.dtd"><svg t="1524874692474" class="icon" style="" viewBox="0 0 1024 1024" version="1.1" xmlns="http://www.w3.org/2000/svg" p-id="3840" xmlns:xlink="http://www.w3.org/1999/xlink" width="64" height="64"><defs><style type="text/css"></style></defs><path d="M721.989632 468.033536c-33.468416-6.36928-17.53088-24.694784-17.53088-24.694784s32.671744-54.194176-6.381568-93.247488c-48.607232-48.607232-166.549504 6.383616-166.549504 6.383616-44.627968 13.549568-32.669696-6.383616-26.302464-41.44128 0-40.644608-14.342144-109.96736-134.674432-68.524032-119.535616 40.63232-222.337024 184.875008-222.337024 184.875008-71.723008 95.62112-62.1568 168.937472-62.1568 168.937472 17.528832 163.364864 191.258624 207.992832 325.933056 218.353664 141.85472 11.159552 333.099008-48.605184 391.272448-172.136448C861.442048 523.024384 755.456 474.417152 721.989632 468.033536L721.989632 468.033536zM422.356992 773.251072c-141.058048 6.367232-255.00672-64.54272-255.00672-158.58688 0-94.029824 113.948672-168.93952 255.00672-175.321088 141.04576-6.367232 255.004672 51.009536 255.004672 145.03936C677.361664 678.428672 563.402752 766.869504 422.356992 773.251072L422.356992 773.251072z" p-id="3841"></path><path d="M394.463232 500.717568c-141.85472 16.734208-125.917184 149.815296-125.917184 149.815296s-0.796672 41.428992 38.258688 62.951424c82.88256 44.623872 168.142848 17.528832 211.175424-37.462016C561.012736 620.251136 536.303616 484.780032 394.463232 500.717568L394.463232 500.717568zM358.59456 687.183872c-26.28608 3.18464-47.81056-11.956224-47.81056-34.260992 0-22.319104 19.134464-45.422592 45.422592-47.81056 30.281728-3.198976 50.212864 14.342144 50.212864 36.651008C406.419456 664.082432 384.897024 683.999232 358.59456 687.183872L358.59456 687.183872zM442.27584 616.255488c-9.568256 6.383616-19.918848 5.588992-24.70912-2.387968-5.572608-7.962624-3.18464-20.713472 5.586944-27.09504 10.350592-7.962624 21.510144-5.574656 26.300416 2.400256C454.230016 597.133312 450.250752 609.091584 442.27584 616.255488L442.27584 616.255488z" p-id="3842"></path><path d="M791.324672 410.669056c11.145216 0 20.713472-8.771584 22.306816-19.931136 0-0.796672 0.796672-1.591296 0.796672-2.387968 16.734208-155.389952-127.496192-128.305152-127.496192-128.305152-12.752896 0-23.115776 10.36288-23.115776 23.117824 0 12.750848 10.364928 23.115776 23.115776 23.115776 103.583744-23.115776 80.480256 81.276928 80.480256 81.276928C767.410176 400.306176 777.775104 410.669056 791.324672 410.669056L791.324672 410.669056z" p-id="3843"></path><path d="M773.781504 139.685888c-49.403904-11.941888-101.195776-1.970176-115.539968 1.214464-0.796672 0-2.404352 0.600064-3.198976 0.600064-0.796672 0-0.796672 0.698368-0.796672 0.698368-14.34624 3.995648-24.696832 17.487872-24.696832 32.628736 0 18.325504 15.140864 33.452032 33.466368 33.452032 0 0 18.325504-2.402304 31.0784-7.192576 11.956224-4.775936 115.554304-3.198976 167.346176 82.868224 27.89376 62.951424 11.956224 105.189376 10.36288 112.367616 0 0-7.17824 15.939584-7.17824 32.673792 0 18.325504 15.140864 31.049728 34.275328 31.049728 15.142912 0 28.690432 0.755712 31.873024-27.916288l0.796672 0C986.56256 235.52 863.830016 160.413696 773.781504 139.685888L773.781504 139.685888z" p-id="3844"></path></svg>