<?xml version="1.0" standalone="no"?><!DOCTYPE svg PUBLIC "-//W3C//DTD SVG 1.1//EN" "http://www.w3.org/Graphics/SVG/1.1/DTD/svg11.dtd"><svg t="1521158326374" class="icon" style="" viewBox="0 0 1024 1024" version="1.1" xmlns="http://www.w3.org/2000/svg" p-id="2827" xmlns:xlink="http://www.w3.org/1999/xlink" width="64" height="64"><defs><style type="text/css"></style></defs><path d="M820.045865 64.951291 204.210985 64.951291c-61.832254 0-111.936395 50.076512-111.936395 112.076588l0 671.536506c0 61.916165 49.992601 112.105241 111.936395 112.105241l615.83488 0c61.832254 0 111.936395-50.076512 111.936395-112.076588l0-671.565159C932.010913 115.139344 881.990682 64.951291 820.045865 64.951291zM876.027877 820.796972c0 46.073338-37.703717 83.889619-84.197634 83.889619L232.454236 904.68659c-46.605457 0-84.197634-37.564547-84.197634-83.889619L148.256602 204.795293c0-46.045709 37.676088-83.86199 84.197634-83.86199l559.376007 0c46.605457 0 84.197634 37.564547 84.197634 83.86199C876.027877 204.795293 876.027877 820.796972 876.027877 820.796972z" p-id="2828"></path><path d="M540.133757 484.818941 344.19518 484.818941 344.19518 316.871881 288.213167 316.871881 288.213167 708.748013 344.19518 708.748013 344.19518 540.800953 540.133757 540.800953 540.133757 708.748013 596.11577 708.748013 596.11577 316.871881 540.133757 316.871881Z" p-id="2829"></path><path d="M680.090323 428.836929l55.982012 0 0 279.912108-55.982012 0 0-279.912108Z" p-id="2830" ></path><path d="M680.090323 316.871881l55.982012 0 0 83.97353-55.982012 0 0-83.97353Z" p-id="2831"></path></svg>